# xmcd
#
# Track frame offsets:
#	150
#	17162
#	32397
#	50037
#	63990
#	78747
#	94807
#	108685
#	121937
#	135247
#	144847
#	159905
#
# Disc length: 2361 seconds
#
# Revision: 2
# Processed by: cddbd v1.5.2PL0 Copyright (c) Steve Scherf et al.
# Submitted via: EZCDAudioConverter 8.3.2.1
#
DISCID=9609370c
DTITLE=キャンディーズ - なみだの季節-CD選書 DE-Magnetic (EZ-WAV)
DYEAR=1974
DGENRE=World Pop
TTITLE0=なみだの季節
TTITLE1=真赤な木の実
TTITLE2=シュガー・ベイビー・ラヴ
TTITLE3=あのひとあまのじゃく
TTITLE4=迷える羊
TTITLE5=ガラスの少女
TTITLE6=風
TTITLE7=思い出のグリーングラス
TTITLE8=コットン・フィールズ
TTITLE9=グリーン・グリーン
TTITLE10=帰らざる日のために
TTITLE11=アイ・ビリーブ・イン・ミュージック
EXTD=
EXTT0=
EXTT1=
EXTT2=
EXTT3=
EXTT4=
EXTT5=
EXTT6=
EXTT7=
EXTT8=
EXTT9=
EXTT10=
EXTT11=
PLAYORDER=
